<svg xmlns="http://www.w3.org/2000/svg" fill="none" viewBox="0 0 35 32">
    <g fill="#000" filter="url(#a)">
        <path d="M10 0H7v3h3V0ZM13 0h-3v3h3V0ZM7 3H4v3h3V3ZM7 6H4v3h3V6ZM7 9H4v3h3V9ZM16 0h-3v3h3V0ZM10 12H7v3h3v-3ZM13 15h-3v3h3v-3ZM16 18h-3v3h3v-3ZM25 0h3v3h-3V0ZM22 0h3v3h-3V0ZM28 3h3v3h-3V3ZM28 6h3v3h-3V6ZM28 9h3v3h-3V9ZM19 0h3v3h-3V0ZM25 12h3v3h-3v-3ZM22 15h3v3h-3v-3ZM19 18h3v3h-3v-3ZM19 3h-3v3h3V3ZM19 21h-3v3h3v-3Z"/>
    </g>
    <defs>
        <filter id="a" width="35" height="32" x="0" y="0" color-interpolation-filters="sRGB" filterUnits="userSpaceOnUse">
            <feFlood flood-opacity="0" result="BackgroundImageFix"/>
            <feColorMatrix in="SourceAlpha" result="hardAlpha" values="0 0 0 0 0 0 0 0 0 0 0 0 0 0 0 0 0 0 127 0"/>
            <feOffset dy="4"/>
            <feGaussianBlur stdDeviation="2"/>
            <feComposite in2="hardAlpha" operator="out"/>
            <feColorMatrix values="0 0 0 0 0 0 0 0 0 0 0 0 0 0 0 0 0 0 0.25 0"/>
            <feBlend in2="BackgroundImageFix" result="effect1_dropShadow_4039_1294"/>
            <feBlend in="SourceGraphic" in2="effect1_dropShadow_4039_1294" result="shape"/>
        </filter>
    </defs>
</svg>